<svg width="32" height="32" fill="none" xmlns="http://www.w3.org/2000/svg"><path fill-rule="evenodd" clip-rule="evenodd" d="M29.633 0H2.361C1.058 0 0 1.033 0 2.308V29.69C0 30.965 1.058 32 2.36 32h27.273C30.938 32 32 30.965 32 29.691V2.308C32 1.033 30.938 0 29.633 0ZM4.923 12.308h4.924v14.769H4.923v-14.77Zm2.463-1.97a2.953 2.953 0 0 1-2.955-2.953 2.954 2.954 0 1 1 2.955 2.954Zm19.692 16.739h-4.923v-7.385c0-2-.54-3.9-2.462-3.9-1.924 0-2.462 1.93-2.462 3.923v7.362h-4.923v-14.77h4.923v1.777h.247c.632-1.2 2.215-2.22 4.097-2.22 4.542 0 5.503 2.983 5.503 6.598v8.615Z" fill="#FF7E03"/></svg>