<svg width="32" height="32" fill="none" xmlns="http://www.w3.org/2000/svg"><path fill-rule="evenodd" clip-rule="evenodd" d="M28.309 13.537h-2.787A9.85 9.85 0 0 1 25.847 16c0 5.438-4.409 9.846-9.846 9.846-5.438 0-9.846-4.409-9.846-9.846 0-.852.12-1.675.324-2.463H3.69v13.54c0 .678.551 1.23 1.232 1.23h22.154c.68 0 1.232-.552 1.232-1.23v-13.54Zm0-8.614c0-.68-.552-1.23-1.232-1.23h-3.692c-.68 0-1.231.55-1.231 1.23v3.692c0 .68.551 1.231 1.23 1.231h3.693c.68 0 1.232-.551 1.232-1.23V4.922ZM16 9.846a6.154 6.154 0 1 0 0 12.308 6.154 6.154 0 0 0 0-12.308ZM28.309 32H3.69A3.693 3.693 0 0 1 0 28.306V3.692A3.692 3.692 0 0 1 3.691 0H28.31A3.692 3.692 0 0 1 32 3.692v24.614A3.693 3.693 0 0 1 28.309 32Z" fill="#FF7E03"/></svg>