<svg width="121" height="45" fill="none" xmlns="http://www.w3.org/2000/svg"><path d="M75.235 19.591v2.441h-9.487V9.062h2.937v10.53h6.55ZM85.753 19.118c-.3 1.008-.86 1.791-1.675 2.35-.803.558-1.763.838-2.88.838-1.493 0-2.698-.45-3.614-1.348-.904-.899-1.355-2.089-1.355-3.57 0-1.458.458-2.66 1.374-3.607.916-.947 2.083-1.421 3.501-1.421 1.468 0 2.635.486 3.501 1.457.866.96 1.3 2.265 1.3 3.917v.255h-6.966c.013.813.214 1.433.603 1.858.401.425.96.637 1.675.637.941 0 1.6-.455 1.976-1.366h2.56Zm-2.56-2.769c-.062-.62-.27-1.123-.62-1.512-.352-.4-.841-.6-1.469-.6-.59 0-1.08.187-1.468.564-.389.376-.621.892-.697 1.548h4.254ZM96.468 22.033h-2.71a3.849 3.849 0 0 1-.188-.911c-.816.79-1.864 1.184-3.144 1.184-1.08 0-1.927-.249-2.541-.747-.616-.51-.923-1.208-.923-2.095 0-.4.05-.753.15-1.056.114-.304.29-.559.528-.765.25-.207.483-.377.697-.51.226-.134.532-.243.922-.328.389-.085.702-.146.94-.183.24-.048.572-.097.999-.145.94-.122 1.568-.25 1.882-.383.326-.133.49-.382.49-.747 0-.838-.584-1.257-1.751-1.257-.615 0-1.067.11-1.355.328-.29.207-.477.577-.565 1.112h-2.504c.15-2.114 1.65-3.17 4.499-3.17 2.823 0 4.235 1.02 4.235 3.06v4.062c0 1.19.113 2.04.34 2.55ZM93.55 17.46c-.313.183-.94.346-1.882.492-.79.122-1.305.273-1.543.456-.277.23-.414.546-.414.947 0 .389.125.698.376.929.264.219.627.328 1.092.328.715 0 1.286-.182 1.713-.547.44-.376.659-.892.659-1.548V17.46ZM104.548 12.47v2.385a5.479 5.479 0 0 0-1.035-.109c-.879 0-1.525.273-1.939.82-.414.534-.621 1.257-.621 2.168v4.299H98.28v-9.4h2.541v1.73c.64-1.299 1.687-1.948 3.144-1.948.125 0 .32.018.583.054ZM115.038 22.032h-2.711V16.55c0-.667-.113-1.171-.339-1.511-.226-.353-.665-.529-1.318-.529-1.406 0-2.108.826-2.108 2.478v5.046h-2.654v-9.4h2.541v1.312c.803-1.045 1.876-1.567 3.219-1.567 1.041 0 1.864.291 2.466.874.602.583.904 1.415.904 2.496v6.284ZM77.155 25.002v7.796c0 1.858-.464 3.23-1.393 4.117-.915.874-2.353 1.312-4.31 1.312-1.983 0-3.445-.444-4.386-1.33-.929-.899-1.393-2.277-1.393-4.135v-7.76h2.936v7.76c0 1.056.207 1.84.622 2.35.414.51 1.167.765 2.258.765 1.054 0 1.77-.255 2.146-.765.39-.51.584-1.294.584-2.35v-7.76h2.936ZM81.94 28.572v1.166c.703-.947 1.707-1.421 3.012-1.421s2.353.456 3.144 1.366c.79.911 1.186 2.125 1.186 3.644 0 1.469-.39 2.653-1.168 3.552-.765.886-1.781 1.33-3.049 1.33-1.305 0-2.302-.468-2.993-1.403v4.5h-2.654V28.571h2.522Zm2.353 1.822c-.727 0-1.299.255-1.713.765-.401.51-.602 1.22-.602 2.131 0 .91.207 1.621.621 2.131.414.51.985.765 1.713.765.715 0 1.274-.255 1.675-.765.414-.51.621-1.208.621-2.094 0-.911-.207-1.628-.62-2.15-.415-.522-.98-.783-1.695-.783ZM32.607 2.045l-6.852 3.902 21.374 11.96 6.95-3.902-21.472-11.96ZM18.87 16.131l6.852-3.902 21.472 11.96-6.95 3.902-21.373-11.96ZM5.102 30.248l6.852-3.902 21.472 11.96-.066-6.28 6.95-3.903v6.313l-13.834 7.772-21.374-11.96ZM47.129 17.908l6.95-3.902v6.313l-6.884 3.87-.066-6.281Z" fill="#fff"/></svg>