<svg width="99" height="116" fill="none" xmlns="http://www.w3.org/2000/svg"><path fill-rule="evenodd" clip-rule="evenodd" d="M33.986 1.786a2.365 2.365 0 1 0-4.088 2.38l2.475 4.251c-8.882 4.66-15.142 13.643-15.985 24.153h66.224c-.827-10.314-6.87-19.156-15.49-23.887l2.631-4.517a2.365 2.365 0 0 0-4.088-2.38l-2.88 4.948A29.949 29.949 0 0 0 52.709 5H46.29c-3.332 0-6.538.544-9.533 1.547l-2.772-4.761Zm48.723 33.29H16.29v6.892a8.146 8.146 0 0 0-16.29 0v31.33a8.146 8.146 0 1 0 16.29 0V66.48c0 10.052 4.944 18.949 12.532 24.393v16.259a8.146 8.146 0 1 0 16.291 0V96.458c.39.016.783.023 1.177.023h6.342v10.652a8.146 8.146 0 1 0 16.291 0V91.726c8.293-5.338 13.785-14.65 13.785-25.245v6.817a8.146 8.146 0 1 0 16.291 0v-31.33a8.146 8.146 0 0 0-16.291 0v-6.892Zm-47.62-12.532a2.506 2.506 0 1 0 0-5.012 2.506 2.506 0 0 0 0 5.012Zm28.822 0a2.506 2.506 0 1 0 0-5.012 2.506 2.506 0 0 0 0 5.012Z" fill="#fff"/></svg>