<svg width="94" height="116" fill="none" xmlns="http://www.w3.org/2000/svg"><path fill-rule="evenodd" clip-rule="evenodd" d="M69.878 0c.737 6.854-1.939 13.731-5.901 18.677-3.964 4.939-10.466 8.786-16.833 8.278-.872-6.715 2.347-13.717 6.016-18.088C57.26 3.921 64.17.237 69.878 0Zm21.045 39.629c-1.051.645-12.548 7.699-12.42 22.025.158 17.313 14.924 23.228 15.482 23.451l.015.006a5.964 5.964 0 0 0-.022.07c-.273.898-2.602 8.538-7.967 16.423-4.816 7.059-9.807 14.096-17.672 14.249-3.778.068-6.304-1.03-8.93-2.172-2.748-1.196-5.606-2.439-10.125-2.439-4.731 0-7.721 1.279-10.603 2.512-2.498 1.069-4.915 2.102-8.313 2.238-7.596.292-13.373-7.636-18.226-14.673-9.909-14.396-17.49-40.68-7.312-58.415C9.88 34.09 18.91 28.515 28.716 28.369c4.225-.083 8.32 1.548 11.903 2.975 2.735 1.09 5.173 2.06 7.145 2.06 1.769 0 4.141-.94 6.908-2.035 4.357-1.724 9.692-3.836 15.188-3.277 3.768.16 14.332 1.527 21.12 11.501l-.057.036Z" fill="#fff"/></svg>